<svg id="Layer_1" data-name="Layer 1" xmlns="http://www.w3.org/2000/svg" viewBox="0 0 1235 650"><defs><style>.cls-1{fill:#bb133e;}.cls-2{stroke:#fff;stroke-miterlimit:10;stroke-width:50px;}.cls-3{fill:#002664;}.cls-4{fill:#fff;}</style></defs><rect class="cls-1" width="1235" height="650"/><path class="cls-2" d="M0,75H1235m0,100H0M0,275H1235m0,100H0M0,475H1235m0,100H0"/><rect class="cls-3" width="494" height="350"/><g id="s4"><path id="s" class="cls-4" d="M78.8,25,95.05,75,52.52,44.1H105L62.56,75Z"/><path id="s-2" class="cls-4" d="M78.8,150l16.25,50L52.52,169.1H105L62.56,200Z"/><path id="s-3" class="cls-4" d="M78.8,275l16.25,50L52.52,294.1H105L62.56,325Z"/></g><g id="s4-2"><path id="s-4" class="cls-4" d="M162.92,87.5l16.23,50-42.52-30.9h52.52l-42.54,30.9Z"/><path id="s-5" class="cls-4" d="M162.92,212.5l16.23,50-42.52-30.9h52.52l-42.54,30.9Z"/></g><g id="s4-3"><path id="s-7" class="cls-4" d="M247,150l16.25,50-42.51-30.9h52.52L230.72,200Z"/><path id="s-7-2" data-name="s-7" class="cls-4" d="M247,25l16.25,50L220.74,44.1h52.52L230.72,75Z"/><path id="s-8" class="cls-4" d="M247,275l16.25,50-42.51-30.9h52.52L230.72,325Z"/></g><g id="s4-4"><path id="s-9" class="cls-4" d="M331.14,87.5l16.25,50-42.53-30.9h52.51l-42.52,30.9Z"/><path id="s-10" class="cls-4" d="M331.14,212.5l16.25,50-42.53-30.9h52.51l-42.52,30.9Z"/></g><path id="s-11" class="cls-4" d="M415.25,25l16.24,50L389,44.1h52.51L399,75Z"/><path id="s-12" class="cls-4" d="M415.25,150l16.24,50L389,169.1h52.51L399,200Z"/><path id="s-13" class="cls-4" d="M415.25,275l16.24,50L389,294.1h52.51L399,325Z"/></svg>