<svg xmlns="http://www.w3.org/2000/svg" width="115" height="115" viewBox="0 0 115 115">
  <path id="Icon_simple-javascript" data-name="Icon simple-javascript" d="M0,0H115V115H0ZM105.58,87.572c-.839-5.247-4.255-9.655-14.389-13.766-3.527-1.653-7.446-2.8-8.611-5.462a5.658,5.658,0,0,1-.22-3.378c.719-3.1,4.384-4.025,7.259-3.162A7.8,7.8,0,0,1,94.3,66.115c4.955-3.239,4.955-3.239,8.409-5.391A19.776,19.776,0,0,0,99.9,56.987c-3.019-3.378-7.039-5.1-13.58-4.955l-3.378.426a15.446,15.446,0,0,0-8.194,4.816c-5.463,6.186-3.886,16.967,2.726,21.424,6.541,4.888,16.1,5.961,17.327,10.566,1.15,5.606-4.169,7.4-9.42,6.756-3.886-.863-6.037-2.808-8.409-6.4L68.2,94.655c1.006,2.3,2.156,3.3,3.881,5.314,8.338,8.414,29.181,7.983,32.924-4.811a16.218,16.218,0,0,0,.355-7.906l.22.321ZM62.536,52.857H51.764c0,9.286-.043,18.515-.043,27.816,0,5.9.3,11.323-.661,12.99-1.581,3.3-5.654,2.88-7.5,2.3a9.245,9.245,0,0,1-3.977-4.1,4.111,4.111,0,0,0-.609-.939l-8.745,5.391a16.948,16.948,0,0,0,6.344,7.269c4.1,2.444,9.6,3.234,15.367,1.941a13.459,13.459,0,0,0,8.678-6.761c2.444-4.456,1.926-9.919,1.9-16.033.057-9.842,0-19.689,0-29.608l.019-.268Z" fill="#525253"/>
</svg>
